<!-- icon666.com - MILLIONS vector ICONS FREE --><svg id="svg8" viewBox="0 0 110.99999 111" xmlns="http://www.w3.org/2000/svg" xmlns:svg="http://www.w3.org/2000/svg"><g id="layer1"><path id="path1195" d="m28.946415-.00000222a2.3922336 2.3922336 0 0 0 -2.39234 2.39233002v10.8847102h-10.8847a2.3924729 2.3924729 0 0 0 -2.39234 2.39233v92.938292a2.3924729 2.3924729 0 0 0 2.39234 2.39234h79.66174a2.3924729 2.3924729 0 0 0 2.39185-2.39234v-92.938292a2.3924729 2.3924729 0 0 0 -2.39185-2.39233h-10.8847v-10.8847102a2.3922336 2.3922336 0 0 0 -2.39234-2.39233002 2.3922336 2.3922336 0 0 0 -2.39234 2.39233002v10.8847102h-21.7694v-10.8847102a2.3922336 2.3922336 0 0 0 -2.39234-2.39233002 2.3922336 2.3922336 0 0 0 -2.39234 2.39233002v10.8847102h-21.7689v-10.8847102a2.3922336 2.3922336 0 0 0 -2.39234-2.39233002zm-10.8847 18.06171022h8.49236v10.884701a2.3922336 2.3922336 0 0 0 2.39234 2.392329 2.3922336 2.3922336 0 0 0 2.39234-2.392329v-10.884701h21.7689v10.884701a2.3922336 2.3922336 0 0 0 2.39234 2.392329 2.3922336 2.3922336 0 0 0 2.39234-2.392329v-10.884701h21.7694v10.884701a2.3922336 2.3922336 0 0 0 2.39234 2.392329 2.3922336 2.3922336 0 0 0 2.39234-2.392329v-10.884701h8.49236v88.154102h-74.87706z" font-variant-ligatures="normal" font-variant-position="normal" font-variant-caps="normal" font-variant-numeric="normal" font-variant-alternates="normal" font-variant-east-asian="normal" font-feature-settings="normal" font-variation-settings="normal" text-indent="0" text-align="start" text-decoration-line="none" text-decoration-style="solid" text-decoration-color="rgb(0,0,0)" text-transform="none" text-orientation="mixed" white-space="normal" shape-padding="0" shape-margin="0" inline-size="0" isolation="auto" mix-blend-mode="normal" solid-color="rgb(0,0,0)" solid-opacity="1" vector-effect="none" fill="#989e9e"/></g></svg>